<svg id="BlackLogo" xmlns="http://www.w3.org/2000/svg" viewBox="0 0 426.89 179"><defs><style>.cls-1{fill:#333;}</style></defs><path class="cls-1" d="M45.9,70.49H13.15V15.87h31.5v10H25.45V38H43.31V48H25.45V60.51H45.9Z"/><path class="cls-1" d="M91.15,70.49h-12V48.82q0-9.07-6.47-9.07a6.4,6.4,0,0,0-5.14,2.4,9.12,9.12,0,0,0-2,6.1V70.49h-12v-39h12v6.17h.15A13.78,13.78,0,0,1,78.2,30.54q12.94,0,13,16.07Z"/><path class="cls-1" d="M124.25,70q-2.67,1.41-8,1.41-12.72,0-12.72-13.22V40.36H97.17V31.49h6.32V23.07l12-3.43V31.49h8.76v8.87h-8.76V56.13q0,6.09,4.83,6.09a8.14,8.14,0,0,0,3.93-1.1Z"/><path class="cls-1" d="M165.76,54.42H140.32q.6,8.49,10.7,8.49a20.9,20.9,0,0,0,11.31-3v8.69q-5.4,2.9-14.05,2.89-9.45,0-14.67-5.24T128.4,51.6q0-9.72,5.63-15.39a18.8,18.8,0,0,1,13.87-5.67q8.52,0,13.19,5.06t4.67,13.75ZM154.6,47q0-8.39-6.78-8.38a6.48,6.48,0,0,0-5,2.4,10.91,10.91,0,0,0-2.57,6Z"/><path class="cls-1" d="M198.36,42.34a10.55,10.55,0,0,0-5.07-1.18A7.31,7.31,0,0,0,187.16,44,12.53,12.53,0,0,0,185,51.86V70.49h-12v-39h12v7.23h.16Q188,30.8,195.39,30.8a7.63,7.63,0,0,1,3,.46Z"/><path class="cls-1" d="M229.78,70c-1.78.94-4.45,1.41-8,1.41Q209,71.44,209,58.22V40.36H202.7V31.49H209V23.07l12-3.43V31.49h8.76v8.87H221V56.13q0,6.09,4.84,6.09a8.08,8.08,0,0,0,3.92-1.1Z"/><path class="cls-1" d="M242.65,25.32a7,7,0,0,1-5-1.81,5.83,5.83,0,0,1-1.95-4.44,5.63,5.63,0,0,1,1.95-4.42,8.15,8.15,0,0,1,10,0,5.68,5.68,0,0,1,1.93,4.42,5.83,5.83,0,0,1-1.93,4.5A7.18,7.18,0,0,1,242.65,25.32Zm5.95,45.17h-12v-39h12Z"/><path class="cls-1" d="M320.65,70.49h-12V48.25q0-8.51-6.25-8.5a5.75,5.75,0,0,0-4.84,2.55,10.55,10.55,0,0,0-1.86,6.36V70.49h-12V48q0-8.27-6.13-8.27a5.88,5.88,0,0,0-4.93,2.44,10.72,10.72,0,0,0-1.85,6.63V70.49h-12v-39h12v6.09h.15a14.79,14.79,0,0,1,12.61-7q8.26,0,11.31,7.27a14.42,14.42,0,0,1,13.1-7.27q12.72,0,12.72,15.69Z"/><path class="cls-1" d="M365.21,54.42H339.77q.62,8.49,10.71,8.49a20.9,20.9,0,0,0,11.31-3v8.69q-5.42,2.9-14.06,2.89-9.44,0-14.66-5.24t-5.22-14.6q0-9.72,5.64-15.39a18.79,18.79,0,0,1,13.86-5.67q8.53,0,13.2,5.06t4.66,13.75ZM354.06,47q0-8.39-6.78-8.38a6.48,6.48,0,0,0-5,2.4,10.84,10.84,0,0,0-2.57,6Z"/><path class="cls-1" d="M410.54,70.49h-12V65.12h-.15q-4.11,6.31-12.07,6.32a14.78,14.78,0,0,1-11.77-5.16q-4.45-5.16-4.46-14.42,0-9.68,4.91-15.5a16,16,0,0,1,12.88-5.82q7.55,0,10.51,5.4h.15V12.75h12Zm-11.81-19V48.59a9.22,9.22,0,0,0-2.21-6.32,7.8,7.8,0,0,0-12,.62c-1.49,2.1-2.24,5-2.24,8.63q0,5.15,2.17,7.92a7.71,7.71,0,0,0,12-.15A12.24,12.24,0,0,0,398.73,51.52Z"/><path class="cls-1" d="M24.16,83.3v30.16H22V83.3h-9.3v-2h20.8v2Z"/><path class="cls-1" d="M54.13,113.46V99.67c0-2.72-.5-4.72-1.49-6A5.48,5.48,0,0,0,48,91.79a7,7,0,0,0-5.21,2.31q-2.25,2.31-2.25,6.63v12.73H38.49v-34h2.07V94.6h.09a8.65,8.65,0,0,1,7.91-4.7,6.88,6.88,0,0,1,5.68,2.41q1.95,2.4,1.95,6.89v14.26Z"/><path class="cls-1" d="M63.6,102.05a11.41,11.41,0,0,0,2.19,7.42,7.36,7.36,0,0,0,6,2.67,12.24,12.24,0,0,0,7.55-2.85v2.2a13.45,13.45,0,0,1-8,2.53,9,9,0,0,1-7.19-3.18q-2.74-3.2-2.74-9a12.82,12.82,0,0,1,2.86-8.48,9.22,9.22,0,0,1,7.45-3.45,7.79,7.79,0,0,1,6.58,3q2.3,3,2.29,8.22v.92Zm14.87-1.88A10.15,10.15,0,0,0,76.56,94a5.92,5.92,0,0,0-4.89-2.2A7.17,7.17,0,0,0,66.31,94a10.41,10.41,0,0,0-2.62,6.21Z"/><path class="cls-1" d="M114.57,113.46V100.08q0-8.3-6-8.29a6.9,6.9,0,0,0-5.45,2.44,8.78,8.78,0,0,0-2.14,6v13.2H98.94v-23H101v4.18h.09A8.33,8.33,0,0,1,109,89.9a6.88,6.88,0,0,1,5.71,2.48c1.32,1.66,2,4,2,7.09v14Z"/><path class="cls-1" d="M124.05,102.05a11.41,11.41,0,0,0,2.19,7.42,7.35,7.35,0,0,0,6,2.67,12.21,12.21,0,0,0,7.54-2.85v2.2a13.45,13.45,0,0,1-8,2.53,9,9,0,0,1-7.19-3.18q-2.75-3.2-2.74-9a12.87,12.87,0,0,1,2.86-8.48,9.24,9.24,0,0,1,7.45-3.45,7.79,7.79,0,0,1,6.58,3q2.29,3,2.29,8.22v.92Zm14.87-1.88A10.21,10.21,0,0,0,137,94a6,6,0,0,0-4.9-2.2A7.17,7.17,0,0,0,126.75,94a10.41,10.41,0,0,0-2.61,6.21Z"/><path class="cls-1" d="M153.9,102.19l7.5,11.27h-2.63l-6.06-9.7h-.09l-.81,1.28c-.11.18-.23.38-.38.61l-5.08,7.81h-2.52l7.69-11.23L144,90.46h2.43l5.12,8.25c.66,1.06,1,1.72,1.19,2h.09l1.14-1.88,5.35-8.34h2.42Z"/><path class="cls-1" d="M175.24,113.15a7.13,7.13,0,0,1-3,.76c-3.4,0-5.1-2-5.1-6.11V92.35H163V90.46h4.13v-6l1-.36c.36-.11.7-.22,1-.34v6.67h6.07v1.89h-6.07v15.18a6.13,6.13,0,0,0,.75,3.45,2.9,2.9,0,0,0,2.55,1.07,5.76,5.76,0,0,0,2.77-.83Z"/><path class="cls-1" d="M192.4,113.46v-34h2.06v34.05Z"/><path class="cls-1" d="M202.32,102.05a11.41,11.41,0,0,0,2.19,7.42,7.35,7.35,0,0,0,6,2.67,12.24,12.24,0,0,0,7.55-2.85v2.2a13.46,13.46,0,0,1-8,2.53,9,9,0,0,1-7.18-3.18q-2.74-3.2-2.74-9A12.82,12.82,0,0,1,203,93.35a9.22,9.22,0,0,1,7.45-3.45,7.79,7.79,0,0,1,6.58,3c1.52,2,2.29,4.75,2.29,8.22v.92Zm14.87-1.88A10.21,10.21,0,0,0,215.28,94a5.92,5.92,0,0,0-4.89-2.2A7.16,7.16,0,0,0,205,94a10.35,10.35,0,0,0-2.62,6.21Z"/><path class="cls-1" d="M232.6,113.46h-1.89l-8.89-23h2.31L231,108.77a15.11,15.11,0,0,1,.7,2.4h.09a13.58,13.58,0,0,1,.65-2.31l7.08-18.4h2.24Z"/><path class="cls-1" d="M246.39,102.05a11.41,11.41,0,0,0,2.19,7.42,7.35,7.35,0,0,0,6,2.67,12.26,12.26,0,0,0,7.55-2.85v2.2a13.48,13.48,0,0,1-8,2.53,9,9,0,0,1-7.19-3.18c-1.82-2.13-2.74-5.13-2.74-9a12.82,12.82,0,0,1,2.87-8.48,9.22,9.22,0,0,1,7.44-3.45,7.81,7.81,0,0,1,6.59,3c1.52,2,2.29,4.75,2.29,8.22v.92Zm14.87-1.88A10.21,10.21,0,0,0,259.35,94a5.93,5.93,0,0,0-4.9-2.2A7.15,7.15,0,0,0,249.1,94a10.35,10.35,0,0,0-2.62,6.21Z"/><path class="cls-1" d="M269.12,113.46v-34h2.07v34.05Z"/><path class="cls-1" d="M24.21,162a10.07,10.07,0,0,1-8-3.31,12.49,12.49,0,0,1-2.94-8.61q0-5.73,3.07-9a10.61,10.61,0,0,1,8.08-3.24,9.89,9.89,0,0,1,7.77,3.21q2.85,3.21,2.85,8.9a12.72,12.72,0,0,1-2.91,8.69A10,10,0,0,1,24.21,162Zm.16-22.23a8.17,8.17,0,0,0-6.48,2.74c-1.61,1.83-2.42,4.36-2.42,7.61a10.77,10.77,0,0,0,2.36,7.26,8.08,8.08,0,0,0,6.45,2.74,7.86,7.86,0,0,0,6.4-2.7c1.49-1.79,2.24-4.29,2.24-7.48s-.74-5.79-2.23-7.54A7.82,7.82,0,0,0,24.37,139.79Z"/><path class="cls-1" d="M49.61,129.59a4,4,0,0,0-2.51-.65q-4.24,0-4.25,5.7v3.82h6.09v1.89H42.85v21.11H40.78V140.35H36.65v-1.89h4.13v-4a7.63,7.63,0,0,1,1.83-5.52,6.65,6.65,0,0,1,7-1.46Z"/><path class="cls-1" d="M93.68,161.46V147.63q0-4.33-1.36-6.09a5.1,5.1,0,0,0-4.3-1.75,6,6,0,0,0-4.69,2.33,8.78,8.78,0,0,0-2,5.87v13.47H79.28v-14q0-7.68-5.84-7.68a5.72,5.72,0,0,0-4.67,2.35,9.47,9.47,0,0,0-1.86,6.07v13.25H64.84v-23h2.07v3.82H67a7.61,7.61,0,0,1,7-4.38,6.6,6.6,0,0,1,4.3,1.45,7.12,7.12,0,0,1,2.41,3.81,8.84,8.84,0,0,1,3.09-3.88,7.57,7.57,0,0,1,4.37-1.38q7.55,0,7.55,9.35v14.21Z"/><path class="cls-1" d="M117.83,161.46v-4.17h-.09a7.87,7.87,0,0,1-7.42,4.73q-8.14,0-8.15-10.26v-13.3h2.09v12.78q0,4.68,1.54,6.79a5.6,5.6,0,0,0,4.84,2.11,6.49,6.49,0,0,0,5.2-2.36,9.46,9.46,0,0,0,2-6.29v-13h2.06v23Z"/><path class="cls-1" d="M126.07,160.45V158a8.72,8.72,0,0,0,2.83,1.59,8.88,8.88,0,0,0,2.87.59q5.41,0,5.42-4.43a3.39,3.39,0,0,0-1.19-2.6,14.68,14.68,0,0,0-3.87-2.23,13.19,13.19,0,0,1-4.64-3,5.9,5.9,0,0,1,.81-8.28,8.19,8.19,0,0,1,5.29-1.73,10.13,10.13,0,0,1,5.08,1.21v2.34a9.61,9.61,0,0,0-5.3-1.66,5.46,5.46,0,0,0-3.66,1.18,3.82,3.82,0,0,0-1.4,3.06,4,4,0,0,0,.88,2.67,11.67,11.67,0,0,0,3.86,2.34,17,17,0,0,1,4.95,3,5.07,5.07,0,0,1,1.34,3.67,5.73,5.73,0,0,1-2.05,4.53,8.36,8.36,0,0,1-5.67,1.78A9.35,9.35,0,0,1,126.07,160.45Z"/><path class="cls-1" d="M146.13,132.67a1.67,1.67,0,0,1-1.19-.5,1.63,1.63,0,0,1-.52-1.25,1.51,1.51,0,0,1,.53-1.21,1.77,1.77,0,0,1,1.18-.46,1.82,1.82,0,0,1,1.22.45,1.53,1.53,0,0,1,.53,1.22,1.78,1.78,0,0,1-1.75,1.75Zm-1,28.79v-23h2.06v23Z"/><path class="cls-1" d="M169.44,160.45a11.43,11.43,0,0,1-6.11,1.57,9.65,9.65,0,0,1-7.57-3.22,12.17,12.17,0,0,1-2.87-8.43,12.67,12.67,0,0,1,3.23-9,10.86,10.86,0,0,1,8.31-3.49,12.63,12.63,0,0,1,5.1,1.08v2.34a10.09,10.09,0,0,0-5.41-1.53,8.26,8.26,0,0,0-6.56,2.91,11.09,11.09,0,0,0-2.52,7.53,10.72,10.72,0,0,0,2.31,7.19,7.57,7.57,0,0,0,6.07,2.72,10.09,10.09,0,0,0,6-1.84Z"/><path class="cls-1" d="M188.06,150.05q0,4.74,2.19,7.41a7.33,7.33,0,0,0,6,2.68,12.26,12.26,0,0,0,7.55-2.85v2.2a13.48,13.48,0,0,1-8,2.53,9,9,0,0,1-7.18-3.19q-2.75-3.18-2.75-9a12.82,12.82,0,0,1,2.87-8.48,9.22,9.22,0,0,1,7.44-3.45,7.75,7.75,0,0,1,6.58,3q2.29,3,2.3,8.22v.92Zm14.87-1.88A10.21,10.21,0,0,0,201,142a5.93,5.93,0,0,0-4.9-2.2,7.15,7.15,0,0,0-5.35,2.17,10.35,10.35,0,0,0-2.62,6.21Z"/><path class="cls-1" d="M226.42,161.46V148.08q0-8.29-6-8.29a6.91,6.91,0,0,0-5.46,2.44,8.82,8.82,0,0,0-2.13,6v13.2h-2.07v-23h2.07v4.18H213a8.32,8.32,0,0,1,7.86-4.74,6.86,6.86,0,0,1,5.7,2.48q2,2.49,2,7.09v14Z"/><path class="cls-1" d="M237.47,160.81q0,11.46-8.13,11.46a7.73,7.73,0,0,1-3.28-.79v-2.16a6.87,6.87,0,0,0,3.51,1.06q5.84,0,5.84-9.19V138.46h2.06Zm-1.05-28.14a1.67,1.67,0,0,1-1.19-.5,1.63,1.63,0,0,1-.52-1.25,1.54,1.54,0,0,1,.53-1.21,1.77,1.77,0,0,1,1.18-.46,1.82,1.82,0,0,1,1.22.45,1.5,1.5,0,0,1,.53,1.22,1.78,1.78,0,0,1-1.75,1.75Z"/><path class="cls-1" d="M254.07,162a10.08,10.08,0,0,1-8-3.31,12.54,12.54,0,0,1-2.93-8.61q0-5.73,3.07-9a10.58,10.58,0,0,1,8.07-3.24,9.86,9.86,0,0,1,7.77,3.21q2.85,3.21,2.85,8.9a12.76,12.76,0,0,1-2.9,8.69A10,10,0,0,1,254.07,162Zm.16-22.23a8.19,8.19,0,0,0-6.48,2.74c-1.61,1.83-2.41,4.36-2.41,7.61a10.76,10.76,0,0,0,2.35,7.26,8.11,8.11,0,0,0,6.45,2.74,7.86,7.86,0,0,0,6.4-2.7c1.5-1.79,2.25-4.29,2.25-7.48s-.75-5.79-2.24-7.54A7.81,7.81,0,0,0,254.23,139.79Z"/><path class="cls-1" d="M276.26,166.16a13.67,13.67,0,0,1-2.78,4.6,5.38,5.38,0,0,1-3.93,1.51,4.82,4.82,0,0,1-1.8-.32v-2.06a5.2,5.2,0,0,0,1.89.31q2.76,0,4.36-3.82l2.13-5.1-8.72-22.82h2.32l6.94,18.74c.15.4.25.71.31.92s.13.54.2.76h.09l.54-1.55,7.42-18.87h2.24Z"/><path class="cls-1" d="M320.33,161.46V147.63q0-4.33-1.36-6.09a5.09,5.09,0,0,0-4.3-1.75,6,6,0,0,0-4.69,2.33,8.78,8.78,0,0,0-2,5.87v13.47h-2.07v-14q0-7.68-5.84-7.68a5.73,5.73,0,0,0-4.67,2.35,9.47,9.47,0,0,0-1.86,6.07v13.25h-2.07v-23h2.07v3.82h.09a7.61,7.61,0,0,1,7-4.38,6.58,6.58,0,0,1,4.3,1.45,7.06,7.06,0,0,1,2.41,3.81,8.84,8.84,0,0,1,3.09-3.88,7.57,7.57,0,0,1,4.37-1.38q7.54,0,7.55,9.35v14.21Z"/><path class="cls-1" d="M329.79,150.05q0,4.74,2.19,7.41a7.33,7.33,0,0,0,6,2.68,12.21,12.21,0,0,0,7.54-2.85v2.2a13.43,13.43,0,0,1-8,2.53,9,9,0,0,1-7.19-3.19c-1.82-2.12-2.74-5.12-2.74-9a12.82,12.82,0,0,1,2.87-8.48,9.22,9.22,0,0,1,7.44-3.45,7.75,7.75,0,0,1,6.58,3q2.3,3,2.29,8.22v.92Zm14.87-1.88a10.21,10.21,0,0,0-1.91-6.18,5.94,5.94,0,0,0-4.9-2.2A7.15,7.15,0,0,0,332.5,142a10.35,10.35,0,0,0-2.62,6.21Z"/><path class="cls-1" d="M368.15,161.46V148.08q0-8.29-6-8.29a6.91,6.91,0,0,0-5.46,2.44,8.82,8.82,0,0,0-2.13,6v13.2h-2.07v-23h2.07v4.18h.09a8.31,8.31,0,0,1,7.86-4.74,6.88,6.88,0,0,1,5.7,2.48q2,2.49,2,7.09v14Z"/><path class="cls-1" d="M386.23,161.15a7.09,7.09,0,0,1-3,.76c-3.4,0-5.1-2-5.1-6.11V140.35H374v-1.89h4.13v-6l1-.36c.36-.11.7-.22,1-.34v6.67h6.06v1.89h-6.06v15.18a6.13,6.13,0,0,0,.75,3.45,2.9,2.9,0,0,0,2.55,1.07,5.72,5.72,0,0,0,2.76-.83Z"/></svg>